<svg xmlns="http://www.w3.org/2000/svg">
  <symbol id="facebook" viewBox="0 0 24 24">
    <path d="M9.101 23.691v-7.98H6.627v-3.667h2.474v-1.58c0-4.085 1.848-5.978 5.858-5.978.401 0 .955.042 1.468.103a8.68 8.68 0 0 1 1.141.195v3.325a8.623 8.623 0 0 0-.653-.036 26.805 26.805 0 0 0-.733-.009c-.707 0-1.259.096-1.675.309a1.686 1.686 0 0 0-.679.622c-.258.42-.374.995-.374 1.752v1.297h3.919l-.386 2.103-.287 1.564h-3.246v8.245C19.396 23.238 24 18.179 24 12.044c0-6.627-5.373-12-12-12s-12 5.373-12 12c0 5.628 3.874 10.35 9.101 11.647Z"/>
  </symbol>
  <symbol id="googlemaps" viewBox="0 0 24 24">
    <path d="M19.527 4.799c1.212 2.608.937 5.678-.405 8.173-1.101 2.047-2.744 3.74-4.098 5.614-.619.858-1.244 1.75-1.669 2.727-.141.325-.263.658-.383.992-.121.333-.224.673-.34 1.008-.109.314-.236.684-.627.687h-.007c-.466-.001-.579-.53-.695-.887-.284-.874-.581-1.713-1.019-2.525-.51-.944-1.145-1.817-1.79-2.671L19.527 4.799zM8.545 7.705l-3.959 4.707c.724 1.54 1.821 2.863 2.871 4.18.247.31.494.622.737.936l4.984-5.925-.029.01c-1.741.601-3.691-.291-4.392-1.987a3.377 3.377 0 0 1-.209-.716c-.063-.437-.077-.761-.004-1.198l.001-.007zM5.492 3.149l-.003.004c-1.947 2.466-2.281 5.88-1.117 8.77l4.785-5.689-.058-.05-3.607-3.035zM14.661.436l-3.838 4.563a.295.295 0 0 1 .027-.01c1.6-.551 3.403.15 4.22 1.626.176.319.323.683.377 1.045.068.446.085.773.012 1.22l-.003.016 3.836-4.561A8.382 8.382 0 0 0 14.67.439l-.009-.003zM9.466 5.868L14.162.285l-.047-.012A8.31 8.31 0 0 0 11.986 0a8.439 8.439 0 0 0-6.169 2.766l-.016.018 3.665 3.084z"/>
  </symbol>
  <symbol id="instagram" viewBox="0 0 24 24">
    <path d="M7.0301.084c-1.2768.0602-2.1487.264-2.911.5634-.7888.3075-1.4575.72-2.1228 1.3877-.6652.6677-1.075 1.3368-1.3802 2.127-.2954.7638-.4956 1.6365-.552 2.914-.0564 1.2775-.0689 1.6882-.0626 4.947.0062 3.2586.0206 3.6671.0825 4.9473.061 1.2765.264 2.1482.5635 2.9107.308.7889.72 1.4573 1.388 2.1228.6679.6655 1.3365 1.0743 2.1285 1.38.7632.295 1.6361.4961 2.9134.552 1.2773.056 1.6884.069 4.9462.0627 3.2578-.0062 3.668-.0207 4.9478-.0814 1.28-.0607 2.147-.2652 2.9098-.5633.7889-.3086 1.4578-.72 2.1228-1.3881.665-.6682 1.0745-1.3378 1.3795-2.1284.2957-.7632.4966-1.636.552-2.9124.056-1.2809.0692-1.6898.063-4.948-.0063-3.2583-.021-3.6668-.0817-4.9465-.0607-1.2797-.264-2.1487-.5633-2.9117-.3084-.7889-.72-1.4568-1.3876-2.1228C21.2982 1.33 20.628.9208 19.8378.6165 19.074.321 18.2017.1197 16.9244.0645 15.6471.0093 15.236-.005 11.977.0014 8.718.0076 8.31.0215 7.0301.0839m.1402 21.6932c-1.17-.0509-1.8053-.2453-2.2287-.408-.5606-.216-.96-.4771-1.3819-.895-.422-.4178-.6811-.8186-.9-1.378-.1644-.4234-.3624-1.058-.4171-2.228-.0595-1.2645-.072-1.6442-.079-4.848-.007-3.2037.0053-3.583.0607-4.848.05-1.169.2456-1.805.408-2.2282.216-.5613.4762-.96.895-1.3816.4188-.4217.8184-.6814 1.3783-.9003.423-.1651 1.0575-.3614 2.227-.4171 1.2655-.06 1.6447-.072 4.848-.079 3.2033-.007 3.5835.005 4.8495.0608 1.169.0508 1.8053.2445 2.228.408.5608.216.96.4754 1.3816.895.4217.4194.6816.8176.9005 1.3787.1653.4217.3617 1.056.4169 2.2263.0602 1.2655.0739 1.645.0796 4.848.0058 3.203-.0055 3.5834-.061 4.848-.051 1.17-.245 1.8055-.408 2.2294-.216.5604-.4763.96-.8954 1.3814-.419.4215-.8181.6811-1.3783.9-.4224.1649-1.0577.3617-2.2262.4174-1.2656.0595-1.6448.072-4.8493.079-3.2045.007-3.5825-.006-4.848-.0608M16.953 5.5864A1.44 1.44 0 1 0 18.39 4.144a1.44 1.44 0 0 0-1.437 1.4424M5.8385 12.012c.0067 3.4032 2.7706 6.1557 6.173 6.1493 3.4026-.0065 6.157-2.7701 6.1506-6.1733-.0065-3.4032-2.771-6.1565-6.174-6.1498-3.403.0067-6.156 2.771-6.1496 6.1738M8 12.0077a4 4 0 1 1 4.008 3.9921A3.9996 3.9996 0 0 1 8 12.0077"/>
  </symbol>
  <symbol id="zomato" viewBox="0 0 24 24">
    <path d="M19.615 9.45l-1.258.473-.167.71-.446.021-.115.978h.408l-.211 1.51c-.131.939.036 1.381.865 1.381.488 0 .91-.175 1.135-.297l.145-.9c-.167.083-.436.19-.618.19-.247 0-.276-.13-.225-.488l.189-1.396h.843c.03-.206.131-.877.16-1h-.865zm-3.779 1.002c-.115.002-.236.01-.361.026a3.592 3.592 0 0 0-1.347.432l.26.789c.269-.15.615-.28.978-.326.538-.066.757.1.79.375.014.109.004.199-.005.289l-.014.056a3.46 3.46 0 0 0-1.097-.036c-.518.063-.943.273-1.204.6a1.324 1.324 0 0 0-.225 1.034c.127.583.553.84 1.199.76.45-.055.812-.27 1.076-.63a2.665 2.665 0 0 1-.03.304 1.74 1.74 0 0 1-.072.29l1.244.001a3.657 3.657 0 0 1-.001-.365c.036-.459.118-1.143.247-2.051a2.397 2.397 0 0 0-.002-.59c-.08-.644-.628-.969-1.436-.958zm6.536.063c-1.194 0-2.107 1.067-2.107 2.342 0 .959.552 1.693 1.628 1.693 1.2 0 2.107-1.067 2.107-2.35 0-.95-.538-1.685-1.628-1.685zm-11.777.041c-.538 0-1.12.465-1.52 1.236.102-.504.08-1.076.051-1.198a8.964 8.964 0 0 1-1.287.122 6.9 6.9 0 0 1-.073 1.243l-.167 1.145c-.066.45-.138.969-.211 1.297h1.353c.007-.199.058-.511.094-.786l.116-.786c.095-.511.502-1.114.815-1.114.182 0 .175.176.124.504l-.131.885c-.066.45-.138.969-.211 1.297h1.367c.008-.199.051-.512.088-.786l.116-.786c.094-.512.502-1.114.814-1.114.182 0 .175.168.146.396l-.327 2.29H13l.438-2.609c.095-.649.044-1.236-.676-1.236-.523 0-1.09.443-1.49 1.182.087-.61.036-1.182-.677-1.182zm-4.88.008c-1.177 0-2.08 1.053-2.08 2.312 0 .946.546 1.67 1.608 1.67 1.185 0 2.08-1.052 2.08-2.319 0-.938-.531-1.663-1.607-1.663zm-5.126.091c-.05.39-.102.778-.175 1.13.328-.008.619-.016 1.411-.016l-1.81 1.96-.015.703c.444-.03.997-.039 1.63-.039.566 0 1.134.008 1.497.039.065-.458.13-.763.21-1.137-.275.015-.755.023-1.512.023l1.81-1.969.023-.694c-.437.023-.83.03-1.52.03-.749 0-.975-.007-1.549-.03zm4.988.927c.255 0 .408.228.408.701 0 .687-.276 1.251-.626 1.251-.261 0-.414-.236-.414-.702 0-.694.283-1.25.632-1.25zm16.629 0c.254 0 .407.228.407.701 0 .687-.276 1.251-.625 1.251-.262 0-.415-.236-.415-.702 0-.694.284-1.25.633-1.25zM15.51 12.64c.206-.003.403.024.55.058l-.013.118c-.075.44-.39.881-.848.938-.31.037-.578-.148-.608-.39a.538.538 0 0 1 .114-.41c.117-.159.336-.268.599-.3.069-.009.138-.013.206-.014Z"/>
  </symbol>
  <symbol id="chevron-left" viewBox="0 0 24 24">
    <path d="M15.41 16.59L10.83 12l4.58-4.59L14 6l-6 6 6 6Z"/>
  </symbol>
  <symbol id="chevron-right" viewBox="0 0 24 24">
    <path d="M8.59 16.59L13.17 12 8.59 7.41 10 6l6 6-6 6Z"/>
  </symbol>
</svg>
